<?xml version="1.0" standalone="no"?>
<!DOCTYPE svg PUBLIC "-//W3C//DTD SVG 20010904//EN"
 "http://www.w3.org/TR/2001/REC-SVG-20010904/DTD/svg10.dtd">
<svg version="1.0" xmlns="http://www.w3.org/2000/svg"
 width="137.000000pt" height="137.000000pt" viewBox="0 0 137.000000 137.000000"
 preserveAspectRatio="xMidYMid meet">
<metadata>
Created by potrace 1.14, written by Peter Selinger 2001-2017
</metadata>
<g transform="translate(0.000000,137.000000) scale(0.100000,-0.100000)"
fill="#000000" stroke="none">
<path d="M295 880 c-159 -159 -286 -292 -283 -295 3 -4 88 -91 188 -196 l182
-189 104 0 c88 0 104 2 104 16 0 15 24 13 59 -6 21 -11 154 20 178 42 13 12
27 17 34 12 7 -4 62 -6 123 -4 61 2 123 3 139 4 18 0 27 5 27 16 0 28 10 29
68 9 50 -17 97 -24 140 -20 8 1 -25 74 -85 191 l-98 191 -120 -6 c-134 -6
-280 -13 -400 -20 -297 -17 -514 -17 -290 -1 50 4 97 9 105 11 8 2 44 6 80 10
36 3 106 10 155 15 50 6 115 13 145 16 99 11 107 12 219 35 l111 23 1 33 c1
18 1 42 1 53 0 11 0 58 -1 104 l-1 85 -51 3 -51 3 44 31 c34 24 43 36 44 62 2
38 -3 39 -96 16 -41 -11 -104 -16 -172 -16 -101 1 -108 0 -126 -22 -15 -20
-22 -22 -38 -13 -10 6 -21 13 -24 16 -11 14 -108 81 -116 81 -5 0 -139 -130
-299 -290z m347 238 c78 -56 111 -86 104 -96 -2 -4 -7 -43 -11 -87 -11 -133
-12 -146 -16 -149 -6 -5 -148 -76 -152 -76 -3 0 -3 10 -2 23 3 32 14 141 21
222 3 39 8 81 9 95 2 14 4 40 4 58 1 38 3 38 43 10z m498 -12 c0 -9 -26 -23
-66 -36 -60 -20 -65 -24 -62 -48 3 -25 7 -27 53 -28 107 -3 95 11 95 -118 l0
-114 -40 -7 c-22 -4 -43 -7 -47 -8 -5 0 -27 -6 -50 -13 -28 -8 -45 -9 -49 -3
-14 23 8 37 78 48 l74 12 -3 72 c-2 40 -5 77 -7 82 -2 6 -33 10 -75 8 -40 -2
-70 1 -67 5 3 5 6 34 7 66 3 62 9 70 67 79 19 3 35 7 37 9 2 2 15 4 29 6 17 1
26 -3 26 -12z m-242 -15 c35 -1 42 -4 42 -21 0 -11 -7 -21 -15 -21 -8 -1 -28
-3 -45 -4 -16 -1 -34 -3 -38 -4 -5 0 -10 -27 -11 -58 -1 -31 -4 -60 -7 -65 -3
-4 18 -8 45 -8 46 0 51 -2 51 -22 0 -21 -4 -23 -49 -20 l-49 4 -4 -41 -4 -41
43 0 c36 0 43 -3 43 -20 0 -18 -7 -20 -61 -20 l-61 0 6 93 c9 145 17 231 21
243 2 6 14 10 27 8 12 -1 42 -3 66 -3z m344 -620 c98 -189 95 -181 70 -181
-15 0 -27 15 -46 56 l-26 55 -44 -4 c-61 -7 -66 -12 -66 -63 0 -32 -4 -44 -15
-44 -13 0 -19 15 -17 40 0 3 3 68 7 145 4 77 9 144 12 148 3 5 14 7 25 5 14
-2 42 -46 100 -157z m-331 117 c1 -13 3 -36 4 -53 1 -16 4 -66 5 -110 2 -44 5
-85 7 -91 4 -10 56 -10 106 1 14 3 18 -2 15 -22 -3 -25 -6 -26 -75 -30 -39 -2
-74 1 -77 6 -13 21 -31 295 -20 312 10 18 34 9 35 -13z m-109 -25 c12 -14 18
-51 22 -150 7 -153 8 -152 -96 -173 -49 -10 -60 -9 -82 6 -21 13 -26 25 -27
63 -1 25 -3 92 -5 149 -2 56 -3 102 -1 102 73 8 113 13 116 16 12 11 60 2 73
-13z m-244 -27 c1 -20 -3 -23 -41 -26 -23 -1 -52 -2 -64 -2 -13 0 -23 -5 -24
-12 -2 -29 4 -149 10 -213 1 -7 22 -10 66 -8 65 2 65 2 65 -25 l0 -28 -87 2
c-86 1 -88 1 -89 26 -7 117 -14 290 -12 291 2 0 23 3 48 6 25 3 46 6 47 7 1 0
19 2 40 3 34 2 39 -1 41 -21z"/>
<path d="M636 1048 c-5 -15 -14 -99 -23 -207 -6 -70 -5 -74 13 -67 10 5 31 13
47 18 22 8 27 16 28 46 0 21 2 46 4 57 10 68 13 112 7 121 -4 6 -22 19 -40 28
-25 13 -33 14 -36 4z"/>
<path d="M1144 508 c1 -83 1 -83 28 -84 50 -2 52 9 13 87 -20 40 -37 75 -39
77 -2 1 -3 -35 -2 -80z"/>
<path d="M739 536 c-3 -3 -24 -6 -47 -7 l-43 -3 2 -118 c2 -74 7 -122 14 -128
18 -15 114 0 124 19 5 9 8 32 6 51 -2 19 -5 67 -6 105 -2 39 -8 73 -14 77 -11
9 -29 10 -36 4z"/>
</g>
</svg>
